{"title":"Korn - Follow The Leader - Custom Remaster by MC Lurken 16-bit 4","uid":7610885,"size":532188427,"categoryP":"audio","categoryS":"flac","magnet":"?xt=urn:btih:1b8c3c5b2980a28832df9d841bdc8285517e3c47&amp;dn=Korn+-+Follow+The+Leader+-+Custom+Remaster+by+MC+Lurken+16-bit+4&amp;tr=udp%3A%2F%2Ftracker.openbittorrent.com%3A80&amp;tr=udp%3A%2F%2Fopen.demonii.com%3A1337&amp;tr=udp%3A%2F%2Ftracker.coppersurfer.tk%3A6969&amp;tr=udp%3A%2F%2Fexodus.desync.com%3A6969","seeders":1,"leechers":0,"uploader":"beavis39","files":-1,"time":1347058991,"description":"Koâ•¨Â»n - Follow The Leader - Custom Remaster by MC Lurken (a.k.a. Beavis39)\n\n\n\n!!!!!!!!!!This is a custom remaster intended to increase the dynamic range and is NOT an official remaster!!!!!!!!!!\n\n\n\n1 - It's On!\n2 - Freak On A Leash\n3 - Got The Life\n4 - Dead Bodies Everywhere\n5 - Children Of The Korn\n6 - B.B.K.\n7 - Pretty\n8 - All In The Family\n9 - Reclaim My Place\n10 - Justin\n11 - Seed\n12 - Cameltosis\n13 - My Gift To You*\n*feat. &quot;Earache My Eye&quot; w/Cheech Marin\n\n\nSetup:\n-HP G72-250US\n-Intel Core i3 M350 2.27GHz\n-8Gb PC3-10700 RAM\n-Win7 64-bit SP1\n-SB X-Fi Surround 5.1\n\nProcess:\n-Original 16-bit/44.1kHz files joined in Wavelab 6\n-Remove DC offset and save as 64-bit float/44.1kHz\n-Resample to 384kHz in Wavelab w/crystal resampler ultra(slow) relax background priority\n-Create new 64-bit/384kHz master recording in Wavelab\n\nAs reported in Wavelab:\n-Original 16-bit/44.1kHz: Apparent Bit Resolution = 16, Peak = -0.1db\n-With DC Offset Removed: Apparent Bit Resolution = 19, Peak = -0.099db\n-64-bit/384kHz Recording: Apparent Bit Resolution = 39, Peak = 0.813db\n\n-Resample 64-bit/384kHz to 64-bit/44.1kHz in Wavelab w/crystal resampler ultra(slow) relax background priority\n-Apply MBIT+ 16-bit Dither in Wavelab w/Izotope Ozone 5 VST Plugin\n-Flac encode level 0 with Trader's Little Helper\n-Tag and pic with xrecode II\n\nfoobar2000 1.1.14a / Dynamic Range Meter 1.1.1\nlog date: 2012-09-06 19:53:33\n\n--------------------------------------------------------------------------------\nAnalyzed: ? / ?\n--------------------------------------------------------------------------------\n\nDR         Peak         RMS     Duration Track\n--------------------------------------------------------------------------------\nDR8        0.00 dB    -9.49 dB      4:29 ?-01 - It's On!\nDR8       -0.46 dB    -9.76 dB      4:15 ?-02 - Freak On A Leash\nDR7        0.00 dB    -8.59 dB      3:45 ?-03 - Got The Life\nDR7       -0.05 dB    -9.08 dB      4:45 ?-04 - Dead Bodies Everywhere\nDR7       -0.09 dB    -8.89 dB      3:52 ?-05 - Children Of The Korn\nDR7       -0.03 dB    -8.93 dB      3:56 ?-06 - B.B.K.\nDR9        0.00 dB   -10.36 dB      4:12 ?-07 - Pretty\nDR7        0.00 dB    -9.45 dB      4:49 ?-08 - All In The Family\nDR7       -0.15 dB    -9.20 dB      4:33 ?-09 - Reclaim My Place\nDR8       -0.30 dB    -9.36 dB      4:17 ?-10 - Justin\nDR7       -0.20 dB    -9.31 dB      5:55 ?-11 - Seed\nDR8        0.00 dB   -10.47 dB      4:38 ?-12 - Cameltosis\nDR8       -0.11 dB    -9.96 dB     13:53 ?-13 - My Gift To You\n--------------------------------------------------------------------------------\n\nNumber of tracks:  13\nOfficial DR value: DR8\n\nSamplerate:        44100 Hz\nChannels:          2\nBits per sample:   16\nBitrate:           1411 kbps\nCodec:             PCM\n\n\n\nMC Lurken - Fighting The Loudness War One CD At A Time\n\n\nenjoy :)","torrent":{"xt":"urn:btih:1b8c3c5b2980a28832df9d841bdc8285517e3c47","amp;dn":"Korn+-+Follow+The+Leader+-+Custom+Remaster+by+MC+Lurken+16-bit+4","amp;tr":["udp%3A%2F%2Ftracker.openbittorrent.com%3A80","udp%3A%2F%2Fopen.demonii.com%3A1337","udp%3A%2F%2Ftracker.coppersurfer.tk%3A6969","udp%3A%2F%2Fexodus.desync.com%3A6969"],"infoHash":"1b8c3c5b2980a28832df9d841bdc8285517e3c47","infoHashBuffer":{"type":"Buffer","data":[27,140,60,91,41,128,162,136,50,223,157,132,27,220,130,133,81,126,60,71]},"announce":[],"urlList":[]}}